<?xml version="1.0" encoding="UTF-8"?>
<svg id="Layer_2" data-name="Layer 2" xmlns="http://www.w3.org/2000/svg" viewBox="0 0 98.54 83.98">
  <defs>
    <style>
      .cls-1 {
        fill-rule: evenodd;
      }

      .cls-1, .cls-2 {
        stroke-width: 0px;
      }

      .cls-1, .cls-2, .cls-3 {
        fill: #fff;
      }

      .cls-3 {
        stroke: #fff;
        stroke-miterlimit: 10;
      }
    </style>
  </defs>
  <g id="Layer_1-2" data-name="Layer 1">
    <g>
      <path class="cls-2" d="M63.92,33.07c-.9-3-2.1-5.9-3-8.9-1.1-4-1.6-8.3-1.3-12.4-2.6,1.6-5.6,2.6-8.6,2.8-1.1.1-2.2,0-3.3-.3s-2-.9-2.9-1.6l-4.3-3.1-4.3,3.1c-.9.6-1.8,1.2-2.9,1.6-1.1.3-2.2.3-3.3.3-3-.2-6-1.2-8.6-2.8.3,4.2-.2,8.4-1.3,12.4-.8,3-2.1,5.9-3,8.9-1.4,4.7-2.1,9.8-1.3,14.7.6,3.8,2,7.5,4.6,10.2,1.5,1.6,3.3,2.8,5.1,3.9,2.3,1.4,4.6,2.8,7.1,3.8,1,.4,2.1.8,3,1.4.9.6,1.7,1.4,2.4,2.2l2.5,2.9,2.5-2.9c.7-.8,1.5-1.7,2.4-2.2.9-.6,2-.9,3-1.4,2.5-1,4.8-2.4,7.1-3.8,1.8-1.1,3.6-2.4,5.1-3.9,2.6-2.8,4-6.5,4.6-10.2.8-4.9.1-10-1.3-14.7ZM62.52,46.97c-.5,3.3-1.8,4.9-4.1,7.4-1.3,1.4-2.9,2.5-4.5,3.5-2,1.3-4.1,2.5-6.3,3.4-.9.4-1.9.7-2.7,1.2s-1.5,1.2-2.2,2l-2.2,2.6-2.2-2.6c-.6-.8-1.3-1.5-2.2-2-.8-.5-1.8-.8-2.7-1.2-2.2-.9-4.3-2.1-6.3-3.4-1.6-1-3.2-2.1-4.5-3.5-2.3-2.5-3.6-4-4.1-7.4-.7-4.4-.1-8.8,1.2-13.1.8-2.7,1.9-5.3,2.6-7.9,1-3.6,1.4-7.3,1.2-11.1,2.3,1.4,4.9,2.3,7.6,2.5,1,.1,2,0,2.9-.2.9-.3,1.8-.8,2.6-1.4l3.8-2.7,3.8,2.7c.8.6,1.6,1.1,2.6,1.4.9.3,1.9.3,2.9.2,2.7-.2,5.3-1,7.6-2.5-.2,3.7.2,7.5,1.2,11.1.8,2.7,1.8,5.3,2.6,7.9,1.5,4.3,2,8.7,1.4,13.1Z"/>
      <path id="rect21" class="cls-1" d="M34.42,18.87l6.2-3.7,6.2,3.7v39.2l-6.2,5.7-6.2-5.7V18.87Z"/>
      <path id="path28" class="cls-1" d="M40.52,18.87v-3.7l6.2,3.7v39.2l-6.2,5.7V18.87Z"/>
      <path id="path32" class="cls-1" d="M27.62,36.07l-6.9,5.8h13.6l6.2-5.8h-12.9Z"/>
      <path id="path45" class="cls-1" d="M20.72,41.87h0l6.9-5.8h-6.2c-.3,1.9-.6,3.9-.7,5.8h0Z"/>
      <path id="path37" class="cls-1" d="M53.42,36.07h-12.9v5.8h19.8l-6.9-5.8Z"/>
      <path id="path43" class="cls-1" d="M53.42,36.07l6.9,5.8c-.1-2-.3-3.9-.8-5.8h-6.1Z"/>
      <path id="path33" class="cls-1" d="M57.92,30.27l-4.5,5.8h6.2c-.2-.7-.3-1.5-.5-2.2-.4-1.2-.8-2.4-1.2-3.6h0Z"/>
      <path id="path42" class="cls-1" d="M46.72,30.27l-6.2,5.8h12.9l4.5-5.8h-11.2Z"/>
      <path id="path36" class="cls-1" d="M23.12,30.27c-.4,1.2-.8,2.4-1.1,3.6-.2.7-.4,1.5-.5,2.2h6.1l-4.5-5.8Z"/>
      <path id="path44" class="cls-1" d="M23.12,30.27l4.5,5.8h12.9l-6.2-5.8h-11.2Z"/>
      <path id="path38" class="cls-1" d="M34.42,58.17l6.2-3.7,6.2,3.7h0l-6.2,5.7-6.2-5.7Z"/>
      <path id="path39" class="cls-1" d="M40.52,58.47v-4.1l6.2,3.7h0l-6.2,5.7v-5.3Z"/>
      <g id="g375">
        <path id="path375" class="cls-3" d="M25.32.47s-1.5.7-3.5,1.8c-1.3.7-2.9,1.6-4,2.5-2.5,2-5.4,4.2-7.1,6.5-1.8,2.3-3.5,4.6-4.9,7.3-2.9,5.4-5,14-4.6,19.9.4,6.2,2.1,12.5,5.2,17.9,2.2,3.9,5.1,7.3,8.5,10.2,2.4,2,5,3.7,7.7,5.3,1.1.6,2.3,1.2,3.5,1.6,2.1.8,4.4,1.1,6.6,1.6,2.7.6,5.3,1.5,7.9,2.6,1.9.9,3.6,1.7,5.2,3,0,0,1.7,1.2,1.8,2,0,.3-.3.8-.7.8-.8.1-2.9-1.8-2.9-1.8-1.5-1.3-2.6-1.9-4.4-2.8-2.5-1.1-4.6-2-7.2-2.6-2.2-.5-4.5-.8-6.7-1.7-1.2-.5-2.5-1-3.6-1.7-2.8-1.6-5.3-3.6-7.8-5.6-3.5-2.9-6.5-6.5-8.8-10.5-3.2-5.6-4.8-12.3-5-18.7-.2-6,1.6-14,4.6-19.6,1.6-3,2.9-5.2,5.6-8.1,2.4-2.6,4.5-4.2,6.9-6.1,1.2-.9,2.8-1.8,4.1-2.4,1.9-.8,3.6-1.4,3.6-1.4h0Z"/>
      </g>
      <g>
        <path class="cls-2" d="M91.02,38.87l-36.2,36.2-2.1-2.1,37.3-37.3c-.6.6-.6,1.6,0,2.2l1,1Z"/>
        <path class="cls-2" d="M94.52,40.17l-37.3,37.3-2.1-2.1,36.2-36.2,1,1c.6.6,1.6.6,2.2,0Z"/>
        <path class="cls-2" d="M93.02,39.27l-2.1-2.1c-.7-.7-.7-1.7,0-2.4l2.6-2.6c.7-.7,1.7-.7,2.4,0l2.1,2.1c.7.7.7,1.7,0,2.4l-2.6,2.6c-.6.7-1.7.7-2.4,0Z"/>
        <polygon class="cls-2" points="52.72 73.07 47.12 83.17 57.22 77.47 52.72 73.07"/>
      </g>
      <rect class="cls-2" x="47.5" y="56.97" width="51.2" height=".5" transform="translate(-19.05 68.45) rotate(-45)"/>
    </g>
  </g>
</svg>