<?xml version="1.0" encoding="UTF-8"?>
<svg id="Layer_2" data-name="Layer 2" xmlns="http://www.w3.org/2000/svg" viewBox="0 0 51.6 81.9">
  <defs>
    <style>
      .cls-1 {
        fill-rule: evenodd;
      }

      .cls-1, .cls-2 {
        fill: #fff;
        stroke-width: 0px;
      }
    </style>
  </defs>
  <g id="Layer_1-2" data-name="Layer 1">
    <g>
      <path class="cls-2" d="M44.7,19c-.7-2.4-1.7-4.8-2.4-7.2-.9-3.3-1.3-6.7-1.1-10.1-2.1,1.3-4.5,2.1-7,2.3-.9.1-1.8,0-2.7-.2-.9-.3-1.6-.7-2.4-1.3l-3.5-2.5-3.5,2.5c-.7.5-1.5,1-2.4,1.3s-1.8.3-2.7.2c-2.5-.2-4.9-1-7-2.3.2,3.4-.1,6.8-1.1,10.1-.7,2.4-1.7,4.8-2.4,7.2-1.2,3.8-1.7,7.9-1.1,11.9.5,3,1.6,6,3.7,8.3,1.2,1.3,2.6,2.2,4.1,3.2,1.8,1.2,3.7,2.3,5.7,3.1.8.3,1.7.6,2.4,1.1.8.5,1.4,1.1,2,1.8l2,2.3,2-2.3c.6-.7,1.2-1.3,2-1.8s1.6-.8,2.5-1.1c2-.8,3.9-1.9,5.7-3.1,1.5-.9,2.9-1.9,4.1-3.2,2.1-2.2,3.3-5.2,3.7-8.3,1.1-4,.6-8-.6-11.9ZM43.6,30.3c-.4,2.7-1.4,4-3.3,5.9-1.1,1.1-2.3,2-3.6,2.8-1.6,1-3.3,2-5.1,2.7-.7.3-1.5.6-2.2,1s-1.2,1-1.8,1.6l-1.8,2.1-1.8-2.1c-.5-.6-1.1-1.2-1.8-1.6s-1.4-.7-2.2-1c-1.8-.7-3.5-1.7-5.1-2.7-1.3-.8-2.6-1.7-3.6-2.8-1.9-2-2.9-3.2-3.3-5.9-.5-3.5-.1-7.1,1-10.6.7-2.2,1.5-4.2,2.1-6.4.8-2.9,1.1-5.9.9-8.9,1.9,1.2,4,1.9,6.2,2,.8.1,1.6,0,2.4-.2.8-.2,1.4-.7,2.1-1.1l3.1-2.2,3.1,2.2c.6.5,1.3.9,2.1,1.1s1.6.3,2.4.2c2.2-.2,4.3-.8,6.2-2-.2,3,.1,6,.9,8.9.6,2.2,1.5,4.3,2.1,6.4,1,3.4,1.5,7.1,1,10.6Z"/>
      <path id="rect21" class="cls-1" d="M20.8,7.6l5-3,5,3v31.7l-5,4.6-5-4.6V7.6Z"/>
      <path id="path21" class="cls-1" d="M20.8,7.6l5-3,5,3h0l-5,3.5-5-3.5Z"/>
      <path id="path28" class="cls-1" d="M25.8,7.6v-3l5,3v31.7l-5,4.6V7.6Z"/>
      <path id="path22" class="cls-1" d="M25.8,7.9v-3.3l5,3h0l-5,3.5v-3.2Z"/>
      <path id="path32" class="cls-1" d="M15.4,21.5l-5.6,4.7h11l5-4.7h-10.4Z"/>
      <path id="path45" class="cls-1" d="M9.8,26.2h0l5.6-4.7h-5c-.3,1.5-.5,3.1-.6,4.7h0Z"/>
      <path id="path37" class="cls-1" d="M36.2,21.5h-10.4v4.7h16l-5.6-4.7Z"/>
      <path id="path43" class="cls-1" d="M36.2,21.5l5.6,4.7c-.1-1.6-.3-3.1-.6-4.7h-5Z"/>
      <path id="path33" class="cls-1" d="M39.9,16.8l-3.7,4.7h5c-.1-.6-.3-1.2-.4-1.8-.3-1-.6-1.9-.9-2.9h0Z"/>
      <path id="path42" class="cls-1" d="M30.8,16.8l-5,4.7h10.4l3.7-4.7h-9.1Z"/>
      <path id="path36" class="cls-1" d="M11.7,16.8c-.3,1-.6,1.9-.9,2.9-.2.6-.3,1.2-.4,1.8h5l-3.7-4.7Z"/>
      <path id="path44" class="cls-1" d="M11.7,16.8l3.7,4.7h10.4l-5-4.7h-9.1Z"/>
      <path id="path38" class="cls-1" d="M20.8,39.3l5-3,5,3h0l-5,4.6-5-4.6Z"/>
      <path id="path39" class="cls-1" d="M25.8,39.6v-3.3l5,3h0l-5,4.6v-4.3Z"/>
      <path class="cls-2" d="M0,56.1c0,1.7,1,3.4,2.4,3.4h46.6c1.5,0,2.5-1.7,2.4-3.4H0Z"/>
      <polygon class="cls-2" points="51.6 54.9 36.2 45.8 28.3 45.2 25.8 49.2 25.8 54.9 51.6 54.9"/>
      <polygon class="cls-2" points="0 54.9 15.4 45.8 23.3 44.9 25.8 49.2 25.8 54.9 0 54.9"/>
      <path class="cls-2" d="M6.6,81.9h-2c-.8,0-1.5-.7-1.5-1.5v-19.5h5v19.5c0,.8-.7,1.5-1.5,1.5Z"/>
      <path class="cls-2" d="M13.6,76.5h-2c-.8,0-1.5-.7-1.5-1.5v-14h5v14c0,.8-.7,1.5-1.5,1.5Z"/>
      <path class="cls-2" d="M47,81.9h-2c-.8,0-1.5-.7-1.5-1.5v-19.5h5v19.5c.1.8-.6,1.5-1.5,1.5Z"/>
      <path class="cls-2" d="M40,76.5h-2c-.8,0-1.5-.7-1.5-1.5v-14h5v14c0,.8-.7,1.5-1.5,1.5Z"/>
    </g>
  </g>
</svg>