<?xml version="1.0" encoding="UTF-8"?>
<svg id="Layer_2" data-name="Layer 2" xmlns="http://www.w3.org/2000/svg" viewBox="0 0 80.34 81.8">
  <defs>
    <style>
      .cls-1 {
        fill-rule: evenodd;
      }

      .cls-1, .cls-2 {
        fill: #fff;
        stroke-width: 0px;
      }
    </style>
  </defs>
  <g id="Layer_1-2" data-name="Layer 1">
    <g>
      <g>
        <path class="cls-2" d="M1.27,40.7c2.3,6.3,5.8,11,10.9,14.5.9.6,1.9.7,2.8,0,.9-.6,1.2-1.6.9-2.7-.2-.7-.6-1.3-1.1-1.6-4.4-2.9-7.4-7-8.9-12.2-1.4-4.5-1.2-9,.2-13.3.6-1.8-.6-3.7-2.4-3.7-1,0-1.9.7-2.2,1.7C.07,27.4-.33,31.6.27,36c.1.7.2,1.4.4,2.1.1.9.4,1.9.6,2.6Z"/>
        <path class="cls-2" d="M11.07,39.2c1,2.9,3.6,6.3,7.2,8.7,1.2.8,2.7.5,3.4-.8.7-1.2.3-2.8-1-3.6-5.2-3.4-7.5-10-5.6-15.9.3-1.1.2-2.1-.5-2.9-1.3-1.4-3.4-1-4,.8-.5,1.4-.8,2.9-.9,4.5-.3,2.7,0,5.3,1.4,9.2Z"/>
        <path class="cls-2" d="M79.07,40.7c-2.3,6.3-5.8,11-10.9,14.5-.9.6-1.9.7-2.8,0-.9-.6-1.2-1.6-.9-2.7.2-.7.6-1.3,1.1-1.6,4.4-2.9,7.4-7,8.9-12.2,1.4-4.5,1.2-9-.2-13.3-.6-1.8.6-3.7,2.4-3.7,1,0,1.9.7,2.2,1.7,1.4,4,1.8,8.2,1.2,12.6-.1.7-.2,1.4-.4,2.1-.1.9-.4,1.9-.6,2.6Z"/>
        <path class="cls-2" d="M69.27,39.2c-1,2.9-3.6,6.3-7.2,8.7-1.2.8-2.7.5-3.4-.8-.7-1.2-.3-2.8,1-3.6,5.2-3.4,7.5-10,5.6-15.9-.3-1.1-.2-2.1.5-2.9,1.3-1.4,3.4-1,4,.8.5,1.4.8,2.9.9,4.5.3,2.7,0,5.3-1.4,9.2Z"/>
      </g>
      <path class="cls-2" d="M60.67,77.9c-3.9-11.1-7.8-22.2-11.7-33.3,1.2-.6,2.3-1.3,3.5-2,1.5-.9,2.9-1.9,4.1-3.2,2.1-2.2,3.3-5.3,3.8-8.3.6-4,.1-8.1-1.1-12-.7-2.4-1.7-4.8-2.4-7.3-.9-3.3-1.3-6.7-1.1-10.1-2.1,1.3-4.5,2.1-7,2.3-.9.1-1.8,0-2.7-.2-.9-.3-1.6-.7-2.4-1.3l-3.5-2.5-3.5,2.5c-.7.5-1.5,1-2.4,1.3s-1.8.3-2.7.2c-2.5-.2-4.9-1-7-2.3.2,3.4-.1,6.8-1.1,10.1-.7,2.5-1.7,4.8-2.4,7.3-1.2,3.9-1.7,8-1.1,12,.5,3.1,1.6,6.1,3.8,8.3,1.2,1.3,2.7,2.3,4.1,3.2,1.1.7,2.3,1.4,3.4,2-1.5,4.4-3.1,8.8-4.6,13.2-2.4,6.8-4.8,13.7-7.2,20.5-.5,1.4,0,2.6,1.2,3.2,1.3.6,2.5.2,3.5-1,.2-.3.6-.5,1-.7,4.7-1.8,9.3-3.6,14-5.4.5-.2,1.2-.2,1.7,0,4.6,1.7,9.2,3.5,13.7,5.3.6.2,1.1.7,1.5,1.1.8.8,1.8,1.2,2.9.9,1.1-.3,1.9-1.2,1.9-2.6.1-.3,0-.8-.2-1.2ZM33.47,54.3c.9-2.5,1.8-5.1,2.7-7.6h0c.8.5,1.4,1.1,2,1.8l2,2.4,2-2.4c.6-.7,1.2-1.3,2-1.8.9,2.5,1.8,5,2.7,7.6-2.2.8-4.2,1.6-6.3,2.4-.2.1-.5.1-.7,0-2.1-.7-4.2-1.5-6.4-2.4ZM36.77,58.2c-1.8.7-3.4,1.3-5.3,2.1.5-1.4.9-2.5,1.3-3.6,1.3.5,2.5.9,4,1.5ZM47.67,56.6c.4,1.2.8,2.3,1.3,3.6-1.8-.7-3.4-1.3-5.3-2,1.4-.6,2.6-1,4-1.6ZM29.27,39.2c-1.3-.8-2.6-1.7-3.7-2.8-1.9-2-2.9-3.3-3.3-6-.5-3.5-.1-7.2,1-10.6.7-2.2,1.5-4.3,2.2-6.5.8-2.9,1.1-6,.9-9,1.9,1.2,4,1.9,6.2,2,.8.1,1.6,0,2.4-.2.8-.2,1.5-.7,2.1-1.1l3.1-2.2,3.1,2.2c.6.5,1.3.9,2.1,1.1s1.6.3,2.4.2c2.2-.2,4.4-.9,6.2-2-.2,3,.1,6.1.9,9,.6,2.2,1.5,4.3,2.2,6.5,1,3.4,1.5,7.1,1,10.6-.4,2.7-1.4,4-3.3,6-1.1,1.1-2.4,2-3.7,2.8-1.1.7-2.2,1.3-3.3,1.9-.6.3-1.2.6-1.8.8-.7.3-1.5.6-2.2,1-.3.2-.5.3-.7.5-.4.3-.7.7-1,1.1l-1.8,2.1-1.8-2.1c-.3-.4-.7-.8-1.1-1.1-.2-.2-.5-.4-.7-.5-.7-.4-1.4-.7-2.2-1-.6-.2-1.2-.5-1.8-.8-1.2-.5-2.3-1.2-3.4-1.9ZM25.57,77c.9-2.7,1.8-5.1,2.7-7.6,2.8,1.1,5.5,2.1,8.5,3.3-3.8,1.4-7.4,2.8-11.2,4.3ZM40.97,71c-.4.1-.9.3-1.2.2-3.6-1.3-7.1-2.7-10.8-4.1.4-1.2.8-2.3,1.2-3.4.1-.2.5-.5.8-.6,2.8-1.1,5.7-2.2,8.5-3.3.4-.1.9-.1,1.3,0,2.8,1,5.6,2.1,8.4,3.3.5.2.9.8,1.1,1.2q1,2.7-1.9,3.8c-2.4,1-4.9,2-7.4,2.9ZM43.57,72.7c3-1.1,5.7-2.2,8.5-3.3.9,2.5,1.7,4.9,2.7,7.6-3.8-1.5-7.4-2.9-11.2-4.3Z"/>
      <path id="rect21" class="cls-1" d="M35.17,7.6l5-3.1,5,3.1v31.9l-5,4.6-5-4.6V7.6Z"/>
      <path id="path28" class="cls-1" d="M40.17,7.6v-3.1l5,3.1v31.9l-5,4.6V7.6Z"/>
      <path id="path32" class="cls-1" d="M29.67,21.6l-5.6,4.7h11.1l5-4.7h-10.5Z"/>
      <path id="path45" class="cls-1" d="M24.07,26.3h0l5.6-4.7h-5c-.3,1.5-.5,3.1-.6,4.7h0Z"/>
      <path id="path37" class="cls-1" d="M50.67,21.6h-10.5v4.7h16.1l-5.6-4.7Z"/>
      <path id="path43" class="cls-1" d="M50.67,21.6l5.6,4.7c-.1-1.6-.3-3.2-.6-4.7h-5Z"/>
      <path id="path33" class="cls-1" d="M54.37,16.8l-3.7,4.7h5c-.1-.6-.3-1.2-.4-1.8-.3-.9-.6-1.9-.9-2.9h0Z"/>
      <path id="path42" class="cls-1" d="M45.17,16.8l-5,4.7h10.5l3.7-4.7h-9.2Z"/>
      <path id="path36" class="cls-1" d="M25.97,16.8c-.3,1-.6,2-.9,2.9-.2.6-.3,1.2-.4,1.8h5l-3.7-4.7Z"/>
      <path id="path44" class="cls-1" d="M25.97,16.8l3.7,4.7h10.5l-5-4.7h-9.2Z"/>
      <path id="path38" class="cls-1" d="M35.17,39.5l5-3.1,5,3.1h0l-5,4.6-5-4.6Z"/>
      <path id="path39" class="cls-1" d="M40.17,39.8v-3.3l5,3.1h0l-5,4.6v-4.4Z"/>
    </g>
  </g>
</svg>