<?xml version="1.0" encoding="UTF-8"?>
<svg id="Layer_2" data-name="Layer 2" xmlns="http://www.w3.org/2000/svg" viewBox="0 0 138.69 80.24">
  <defs>
    <style>
      .cls-1 {
        fill: #fff;
        stroke-width: 0px;
      }
    </style>
  </defs>
  <g id="Layer_1-2" data-name="Layer 1">
    <g>
      <path class="cls-1" d="M89.47,48.54h-14v16.9l-.1.1h.1l-6.5,5.9-6.5-5.9h.1l-.1-.1v-17l-.1.1h-14.1c.1-2,.4-4.1.7-6,.1-.7.3-1.6.5-2.3.3-1.2.8-2.5,1.2-3.7h11.8v-11.9l6.4-3.8v-.1h.2l6.5,3.9v11.9h11.6c.4,1.2.8,2.5,1.2,3.7.08.28.14.59.2.91.22,1.17.39,2.36.51,3.55l.38,3.84Z"/>
      <path class="cls-1" d="M93.78,39.44c-.9-3.1-2.2-6.2-3.1-9.3-1.1-4.2-1.7-8.7-1.4-12.9-2.7,1.7-5.8,2.7-9,2.9-1.1.1-2.3,0-3.4-.3-1.1-.3-2.1-.9-3-1.7l-4.5-3.2-4.5,3.2c-.9.6-1.9,1.2-3,1.7-1.2.3-2.3.3-3.4.3-3.1-.2-6.3-1.3-9-2.9.3,4.4-.2,8.7-1.4,12.9-.8,3.1-2.2,6.1-3.1,9.3-1.5,4.9-2.2,10.2-1.4,15.3.6,4,2.1,7.8,4.8,10.6,1.6,1.7,3.4,2.9,5.3,4.1,2.4,1.5,4.8,2.9,7.4,4,1,.4,2.2.8,3.1,1.5.9.6,1.8,1.5,2.5,2.3l2.6,3,2.6-3c.7-.8,1.6-1.8,2.5-2.3.9-.6,2.1-.9,3.1-1.5,2.6-1,5-2.5,7.4-4,1.9-1.1,3.7-2.5,5.3-4.1,2.7-2.9,4.2-6.8,4.8-10.6,1-5.1.3-10.4-1.2-15.3ZM92.28,53.94c-.5,3.4-1.9,5.1-4.3,7.7-1.4,1.5-3,2.6-4.7,3.7-2.1,1.4-4.3,2.6-6.6,3.5-.9.4-2,.7-2.8,1.3-.8.5-1.6,1.2-2.3,2.1l-2.3,2.7-2.3-2.7c-.6-.8-1.3-1.6-2.3-2.1-.8-.5-1.9-.8-2.8-1.3-2.3-.9-4.5-2.2-6.6-3.5-1.7-1-3.3-2.2-4.7-3.7-2.4-2.6-3.7-4.2-4.3-7.7-.7-4.6-.1-9.2,1.2-13.6.8-2.8,2-5.5,2.7-8.2,1-3.8,1.4-7.6,1.2-11.6,2.4,1.5,5.1,2.4,7.9,2.6,1,.1,2.1,0,3-.2.9-.3,1.9-.8,2.7-1.5l4-2.8,4,2.8c.8.6,1.7,1.1,2.7,1.5.9.3,2,.3,3,.2,2.8-.2,5.5-1,7.9-2.6-.2,3.9.2,7.8,1.3,11.6.8,2.8,1.9,5.5,2.7,8.2,1.8,4.4,2.4,9,1.7,13.6Z"/>
      <path class="cls-1" d="M37.28,51.95c0,3.32-8.35,6-18.64,6S0,55.27,0,51.95c0-.62.29-1.22.84-1.79,2.36,2.44,9.44,4.22,17.8,4.22s15.44-1.78,17.8-4.22c.55.57.84,1.17.84,1.79Z"/>
      <path class="cls-1" d="M138.69,51.95c0,3.32-8.35,6-18.64,6s-18.64-2.68-18.64-6c0-.62.29-1.22.84-1.79,2.36,2.44,9.44,4.22,17.8,4.22s15.44-1.78,17.8-4.22c.55.57.84,1.17.84,1.79Z"/>
      <polygon class="cls-1" points=".84 46.09 18.64 16.66 36.44 46.09 18.64 13.12 .84 46.09"/>
      <polygon class="cls-1" points="102.25 46.09 120.05 16.66 137.85 46.09 120.05 13.12 102.25 46.09"/>
      <polygon class="cls-1" points="62.42 16.98 62.42 6.81 68.82 0 69.02 13.08 62.42 16.98"/>
      <polygon class="cls-1" points="75.32 16.98 75.32 6.81 68.82 0 68.72 13.08 75.32 16.98"/>
      <polygon class="cls-1" points="18.64 13.12 62.42 6.81 75.32 6.81 120.05 13.12 68.87 9.96 18.64 13.12"/>
    </g>
  </g>
</svg>