<?xml version="1.0" encoding="UTF-8"?>
<svg id="Layer_2" data-name="Layer 2" xmlns="http://www.w3.org/2000/svg" viewBox="0 0 62.93 80.5">
  <defs>
    <style>
      .cls-1 {
        fill-rule: evenodd;
      }

      .cls-1, .cls-2 {
        fill: #fff;
        stroke-width: 0px;
      }
    </style>
  </defs>
  <g id="Layer_1-2" data-name="Layer 1">
    <g>
      <path class="cls-1" d="M32.43,9.7l-6.4-3.9-6.4,3.9-1.6,1v1.3l1.6-1v8.5c0,.5.4.9.9.9h11c.5,0,.9-.4.9-.9v-8.5l1.6,1v-1.3l-1.6-1ZM27.73,19.7h-3.3v-3.1c0-.9.7-1.6,1.6-1.6s1.6.7,1.6,1.6v3.1h.1Z"/>
      <g>
        <path class="cls-2" d="M30.63,54.9c-.9.5-1.6,1.3-2.3,2.1l-2.3,2.7-2.3-2.7c-.7-.8-1.4-1.5-2.2-2.1-.6-.3-1.2-.6-1.9-.9v5.1c.4.2.9.4,1.3.7,1,.6,1.8,1.4,2.5,2.3l2.6,3,2.6-3c.8-.9,1.6-1.7,2.5-2.3.4-.3.8-.5,1.3-.7v-5.1c-.6.2-1.3.5-1.8.9ZM50.33,24.4c-.3-1-.6-1.9-.9-2.8h-3c.4,1.2.9,2.5,1.3,3.8.8,2.7,1.4,5.5,1.5,8.3h2.9c-.2-3.2-.9-6.3-1.8-9.3ZM49.13,35.8c0,1-.1,2-.3,3-.5,3.5-1.9,5.1-4.3,7.7-1.4,1.4-3,2.6-4.7,3.6-1.7,1.1-3.4,2.1-5.3,2.9v5.1c2.5-1,4.8-2.4,7-3.8,1.9-1.2,3.8-2.5,5.3-4.1,2.7-2.9,4.2-6.7,4.8-10.6.2-1.3.3-2.6.3-3.8h-2.8ZM47.23,15.1c-1.2-4.2-1.6-8.6-1.3-12.9-2.7,1.7-5.8,2.7-9,2.9-1.1.1-2.3,0-3.4-.3-1.1-.3-2.1-.9-3-1.6l-4.5-3.2-4.5,3.2c-.9.7-1.9,1.3-3,1.6-1.1.3-2.3.4-3.4.3-3.2-.2-6.3-1.2-8.9-2.9.3,4.3-.2,8.7-1.4,12.9-.9,3.2-2.1,6.2-3.1,9.3C.23,29.3-.47,34.6.33,39.7c.6,3.9,2.1,7.8,4.8,10.6,1.5,1.6,3.4,2.9,5.3,4.1,2.2,1.4,4.6,2.8,7,3.8v-5.1c-1.8-.8-3.6-1.9-5.3-2.9-1.7-1.1-3.3-2.2-4.7-3.6-2.4-2.6-3.7-4.2-4.3-7.7-.7-4.5-.1-9.2,1.2-13.6.4-1.3.8-2.5,1.3-3.8s1-2.7,1.4-4.1c0-.2.1-.3.1-.4,1-3.7,1.4-7.6,1.2-11.5,2.4,1.5,5.1,2.4,7.9,2.6,1,.1,2.1,0,3-.2s1.9-.8,2.7-1.4l4-2.8,4,2.8c.8.6,1.7,1.2,2.7,1.4s2,.3,3,.2c2.8-.2,5.6-1.1,7.9-2.6-.2,3.9.2,7.8,1.2,11.5.2.8.4,1.5.7,2.3h3c-.3-1.4-.8-2.8-1.2-4.2Z"/>
        <path class="cls-1" d="M62.93,33.6h-30.5v41l-6.4,5.9-6.4-5.9v-41H5.53c.1-2,.4-4,.8-6,.2-.8.3-1.5.5-2.3.3-1.3.7-2.5,1.1-3.8h52.5c.4,1.2.8,2.5,1.1,3.8.2.8.4,1.5.5,2.3.6,1.9.8,4,.9,6Z"/>
      </g>
    </g>
  </g>
</svg>