<?xml version="1.0" encoding="UTF-8"?>
<svg id="Layer_2" data-name="Layer 2" xmlns="http://www.w3.org/2000/svg" viewBox="0 0 87.97 87.2">
  <defs>
    <style>
      .cls-1 {
        fill: #fff;
        stroke-width: 0px;
      }
    </style>
  </defs>
  <g id="Layer_1-2" data-name="Layer 1">
    <g>
      <g>
        <path class="cls-1" d="M47.87,7C25.77,7,7.77,25,7.77,47.1s18,40.1,40.1,40.1,40.1-17.9,40.1-40.1S69.97,7,47.87,7ZM47.87,84.3c-20.5,0-37.2-16.7-37.2-37.2S27.27,9.8,47.87,9.8s37.2,16.7,37.2,37.2-16.7,37.3-37.2,37.3Z"/>
        <path class="cls-1" d="M64.77,41.3c-.6-2.1-1.5-4.3-2.1-6.5-.8-3-1.1-6.1-1-9.1-1.9,1.2-4,1.9-6.2,2-.8.1-1.6.1-2.4-.2-.8-.2-1.5-.7-2.1-1.1l-3.1-2.2-3.1,2.2c-.7.5-1.4.9-2.1,1.1-.7.2-1.6.2-2.4.2-2.2-.2-4.3-.9-6.2-2,.2,3.1-.2,6.2-1,9.1-.6,2.1-1.5,4.3-2.1,6.5-1.1,3.5-1.6,7.2-1,10.8.4,2.8,1.5,4,3.4,6.1,1.1,1.1,2.4,2.1,3.7,2.9,1.6,1.1,3.4,2,5.2,2.8.7.3,1.6.6,2.2,1,.7.4,1.3,1,1.8,1.6l1.8,2.1,1.8-2.1c.6-.7,1.1-1.2,1.8-1.6.7-.4,1.5-.7,2.2-1,1.8-.7,3.5-1.7,5.2-2.8,1.3-.8,2.6-1.7,3.7-2.9,1.9-2,2.9-3.4,3.4-6.1.2-3.7-.2-7.3-1.4-10.8ZM53.07,47.9v13.3h0l-5.1,4.7-5.1-4.7h0v-13.4l-.1.1h-11.2c.1-1.6.3-3.2.6-4.8.1-.6.2-1.2.4-1.8.2-1,.7-2,1-3h9.3v-9.4l5-3h0l5.1,3v9.4h9.1c.3,1,.7,2,1,3,.2.6.2,1.2.4,1.8h-.1c.4,1.6.6,3.1.7,4.8h-11Z"/>
        <path class="cls-1" d="M47.87,11.8c-19.4,0-35.2,15.8-35.2,35.2s15.8,35.2,35.2,35.2,35.2-15.8,35.2-35.2S67.27,11.8,47.87,11.8ZM68.17,52.7c-.5,3-1.6,6.1-3.8,8.4-1.2,1.2-2.7,2.3-4.2,3.2-1.9,1.2-3.8,2.3-5.8,3.1-.8.4-1.7.7-2.5,1.2-.7.4-1.4,1.1-2,1.8l-2,2.4-2-2.4c-.6-.7-1.2-1.3-2-1.8-.7-.5-1.7-.8-2.5-1.2-2.1-.8-3.9-2-5.8-3.1-1.5-.9-3-1.9-4.2-3.2-2.1-2.2-3.3-5.2-3.8-8.4-.7-4-.1-8.2,1.1-12.1.7-2.5,1.8-4.8,2.5-7.3.9-3.3,1.3-6.7,1.1-10.2,2.1,1.3,4.6,2.1,7.1,2.3.9,0,1.8,0,2.7-.2.9-.3,1.6-.8,2.4-1.3l3.5-2.5,3.5,2.5c.7.6,1.5,1.1,2.4,1.3s1.8.3,2.7.2c2.5-.2,4.9-1,7.1-2.3-.2,3.4.2,6.9,1.1,10.2.7,2.5,1.7,4.8,2.5,7.3.9,3.9,1.5,8.1.9,12.1Z"/>
      </g>
      <path class="cls-1" d="M18.97,15.4l-3.1-2.9q-1.9-1.8-1.9-1.8s.49-.38,2.5-2c2.5-2,5.2-3.5,7.9-5.1l2.6-1.3,1.5,1.7,2.7,3.2s-1.6.9-3.4,1.9c-2.6,1.5-3.93,2.35-7.3,5.1l-1.5,1.2Z"/>
      <path class="cls-1" d="M4.37,48.7c-1.9-1.1-4.3-3.3-4.3-3.3,0,0-.2-4.8.1-6.6.5-3.7,1.2-7.3,2.3-10.8.3-.9.8-1.9.8-1.9,0,0,1,.9,1.5,1.3,1.5,1.2,3.4,2.9,3.4,2.9,0,0-1.2,3.3-1.7,4.7-1.5,4.1-1.9,9.3-2.1,13.7Z"/>
      <path class="cls-1" d="M16.57,18.2l-.9.9c-2,2.1-3.6,4.6-5.1,7.1-.3.5-.9,1.5-.9,1.5l-1.2-1.2-3.8-3.5s1.1-2.2,2.7-4.9c.3-.5.6-1.1.9-1.5.9-1.4,2.9-3.9,2.9-3.9l5.4,5.5Z"/>
      <path class="cls-1" d="M45.57.2l2.3,2.9.7,1s-1,0-1.3,0c-3.94.25-7.82.33-11.6,1.6-.2.1-.6.2-.6.2l-3.7-3.7-1.2-1.1s1.6-.3,2.3-.4c7.8-1.1,13.1-.5,13.1-.5Z"/>
      <path class="cls-1" d="M68.07,9.1c-4.5-1.6-9-3.9-13.7-4.7-.4-.1-1.4-.3-1.4-.3l-3.5-4.1c7.1,1.2,13.3,5.1,18.6,9.1Z"/>
      <path class="cls-1" d="M13.87,73.5c-5.1-3.8-12.2-17.2-13.2-24.1,1.8,1.5,2.7,2.2,3.9,3.1.4,2.2,1.6,7,3,9.7,1.2,2.3,5.3,9.2,6.3,11.3Z"/>
    </g>
  </g>
</svg>