<?xml version="1.0" encoding="UTF-8"?>
<svg id="Layer_2" data-name="Layer 2" xmlns="http://www.w3.org/2000/svg" viewBox="0 0 94.5 85.21">
  <defs>
    <style>
      .cls-1 {
        fill: #fff;
        stroke-width: 0px;
      }
    </style>
  </defs>
  <g id="Layer_1-2" data-name="Layer 1">
    <g>
      <g>
        <path class="cls-1" d="M64.9,41.21h-13v13.8c-.2.1-.4.3-.6.4-.5.4-1.1.7-1.6,1-1.2.7-1.5,1.4-1.7,2.2-.1.4-.2.7-.8,1.1s-.8.8-.8,1.1c-.8-.1-1.6-.3-2.5-.6l-3.8-3.5v-15.5h-13c0-.6.1-1.3.1-1.9.5.1.9.1,1.4.2h.4c1.5,0,2.3-.6,2.7-1.1.6-.7.8-1.7.5-2.9-.4-1.8-.9-3.6-1.5-5.4h9.4v-10.8l1.6-1,4.2-2.6,5.9,3.6v10.8h8.5c-.6,1.2-1.2,2.3-1.7,3.4-.7,1.5-.4,2.5-.1,3.1.3.6,1,1.3,2.6,1.6.6.1,1.2.1,1.9.1h1.4c.1.6.2,1.3.2,1.9.2.3.3.6.3,1Z"/>
        <path class="cls-1" d="M78.2,37.31c-.6,0-1.3.3-1.9.5-1.2.4-2.4.8-3.9,1.3.3-1,.4-1.7.6-2.4.3-1,1.1-1.2,1.8-.5.3.2.4.6.9,1.2.3-.9.8-1.9.6-2.1-.6-.7-1.5-1-2.6-1.7,1.4-2.3,2.9-4.6,4.4-7,0-.1.1-.1.1-.2,0,0,1.8-6.6,1.6-7.3-.2-.6-1.1-1.2-1.4-1.5h0c-.3-.3-.7-.3-.8-.7-.1-.5,0-.7.2-1,.1-.2.7-.1,1-.4.1-.1.2-.2.3-.3.5-.7,1.3-2.2,1.3-2.9s-.2-1.1-.4-1.7c-.2-.3-.6-.6-.8-.8-.2-.1-.3-.1-.5-.2-.7-.2-1.4-.2-1.8.1-.9.7-1.4,1.9-1.9,3-.4.9-.6,1.9.4,2.7.1.1.1.6,0,.8-.1.2-.6.4-.8.3-2.1-.7-4,0-6,.8-2.1.9-2.3-.1-5.5-.5-3.1-.4-4.9-.9-7-3.2l-4.5-3.5c-.3-.3-.6-.7-.8-1.1-.6-.9-1.5-1.6-2.7-1.8-.4-.1-.8-.2-1.1-.4v-.4c.5-.2.4-.1.9-.2.6-.2,1.1-1.3,1.2-1.7.1-.4.3-1.3-.1-2.3-.5-1.2-1.1-2.3-2.7-2.2-1.6.1-2.4.6-3,2.2-.3.9-.3,1.5.1,2.5.2.4.3,1.2.8,1.5.3.2.1,0,.4.2-.3.3-.6.7-.9.8-2.2.8-3.1,3-4.1,5.1-1.3,1.8-2,2.5-3.6,3.8-.7.6-2.8,1.5-3.7,1.7-2.7.8-4.7,1.1-7-.4-1.5-1-3-1.8-4.9-1.7-.3,0-.8-.2-.8-.4,0-.3.2-.6.4-1s.7-.8.6-1.2c-.2-1.4-.5-2.9-.8-4.3-.1-.2-.5-.5-.8-.5-1.5,0-3.2-.4-4.1,1.2-.1.1-.1.3-.2.4v1.3c0,.4,0,.6.1.9,0,.2.1.4.1.8.2.8.6.9,1,1.1s.1,1.1,0,2c-.1.7-.7.8-1.3,1.2-.1.1-.2.1-.3.2-.7.7-.5,2.2-.5,3.3,0,.6.3,1.9.6,3,.2.9.4,1.6.4,1.7h0c.7,1.7,1.3,3.4,1.9,5.1.3.7.3,1.5.4,2-1.1.4-2.1.6-2.7,1.1-.3.2.1,1.3.3,2.1.7-.5,1-1,1.4-1s1.2.3,1.3.5c.2.9.1,1.8.1,2.8-1.9-1-3.6-2.1-5.3-2.9-.6-.3-1.6-.3-2,0-.7.6-.8,1.6-.1,2.6.7-.9,1.3-.5,2,0,1.3,1,2.6,2,4,2.9,2.2,1.4,4.1.9,5.3-1.4.2-.4.4-.8.6-1.1.7,1.6-1.5,6.2-1.4,8,.1,4.1,1.2,9.5,3.7,10.8.4.2,1.8.7,1.9,1,.5,2.2,1.4,3.5,1.6,5.7.2,2.9-.1,3.4-.2,6.3,0,.6.2,1.3.3,2.2-2.7.3-5.5.8-8.4,1-2.1.2-3.6,2.3-2.9,4.5q1.2-.3,1.8-2.2c.3,0,.6.1,1,.1,2.7.6,5.5,1.3,8.2,1.7,3.3.5,5.8-.4,6-3.7h4.4q.1.2.2.5c-2.2,1.9-4.3,4.1-6.7,5.7-2,1.4-1.8,2.8-.9,5,.1.2.5.5.6.5.3-.1.6-.4.6-.6,0-.7-.1-1.4-.1-2.3,1.6-.6,3.2-1.2,4.8-1.8,1.7-.7,3.4-1.3,5-2.2,2.6-1.5,3.2-3.7,1.8-6.3-.6-1.2-1.5-2.4-2.4-3.5-1.3-1.6-.6-1.6-1.9-3.1-1-1.2-1.6-.1-1.6-1.7,1.4.6,2,.6,3.4,1.1,3.3,1.1,5.3-.7,8.6-.6l1.6-.9c.3-.2.6-.5.6-1,0-.3-.1-.5-.2-.7,1.4-.6,2.7-1.4,4.1-2.1.2,3.4-.6,4-2.3,6.8-1,1.5-1.8,3.2-2.5,4.8-.7,1.7-.1,3.6,1.4,4.6,1.7,1.2,3.5,2.2,5.2,3.3l-.2,1.3.4.2c.7-.5,1.5-1,2.2-1.5.6-.5.6-1.1-.1-1.6-.5-.4-.9-.9-1.6-1.5,6.6-1,13.2-1.3,16.7-7.9.5.4.9.8,1.4,1.2.5-1.3.2-2.4-.5-3.3s-1.6-.6-2.4-.2c-2.3.9-4.7,1.8-7.1,2.8-.1-.5-.1-.6-.1-.8-.1-4.8-.3-7.1-.4-11.9,0-.5,0-.9.1-1.4.8-2,6-10.1,6.8-12.1,2.2-.9,4.6-1.9,7.2-3,.1.3.3.7.5,1,.2-.1.4-.1.6-.2,0-.9.3-1.8,0-2.5-.7-.2-1.9-.3-2.6-.3ZM75.8,24.41c-.7,1.7-1.2,3.1-1.8,4.6-1-2.3-.7-3.2,1.8-4.6ZM18,28.31c-.3-1.7-.6-3.2-.8-4.8,1.9,1.3,2.1,2.5.8,4.8ZM23.9,31.11h.3c.3.9.6,1.8,1,3h-2c.4-1.1.6-2,.7-3ZM26,52.81c-.2-.2-.4-.4-.6-.7,0-.1-.1-.1-.1-.2.1,0,.1.1.2.1.8.6,1.7,1.1,2.7,1.7-1.1-.1-1.7-.5-2.2-.9ZM68.9,21.91c-.8,1.3-1.4,2.7-3.2,3.1-.8.2-1.6,1.1-2,1.9-1.1,1.8-2.1,3.7-3,5.7-.8,1.9-.1,3.2,1.9,3.5,1.6.2,3.3,0,5.1,0,.3,2.4-2.3,11-4.3,14.1-.1-1-.1-1.6-.1-2.2-.2-1.5-.7-2.7-2.1-3.4-1.5-.6-2.6.1-3.7,1.1-1.1,1.1-1.4,2.5-1,3.9.2.6,1,1,1.7,1.7-.4,1.5-1.3,2.8-3.1,3.7-1.6.8-3.1,1.9-4.6,2.8-2,1.2-.7,2.1-2.6,3.4-.3.2-.4.4-.4.5l-1,1c-2.7-.3-5.2-1.5-7.5-2.9-2.2-1.3-4.4-2.7-6.5-4.1-.8-.5-1.6-1.3-2.1-2.1-.4-.6-.3-1.3.6-1.8,1-.5.9-1.8.3-2.5-1-1.2-2.3-2.3-3.6-3.1-1.1-.7-2.6,0-3.3,1.1-.1.1-.2.3-.2.4s-.1.2-.1.3v-.3c0-.4-.1-.8-.1-1.1,0-2.6,1.1-7.2,0-9.1-.2-.4-.2-.9-.3-1.1,1.6.3,2,1.1,3.7,1.2,2.1.1,3-.9,2.6-2.9-.5-2.3-1.2-4.6-2-6.8-.2-.7-.8-1.5-1.5-1.8-1.9-.8-1.8-2.7-2.5-4.2-.1-.2-.1-.5-.1-.8,10.7,4.3,15.6-7.1,21.7-9.8l14.6,7.9c3.7,2.5,4.3,2.6,8.5,1.6.1,0,.3,0,.6-.1,0,.3-.1.8-.4,1.2ZM67.4,30.81v2.9c-.6-.1-1.1-.2-1.9-.4.6-1,1.1-1.8,1.6-2.6.1,0,.2,0,.3.1Z"/>
      </g>
      <polygon class="cls-1" points="86.6 11.31 83.9 15.41 84.6 17.51 94.5 15.11 86.6 11.31"/>
      <polygon class="cls-1" points="85.3 20.31 92.2 18.61 94.1 25.71 85.4 23.21 85.3 20.31"/>
      <polygon class="cls-1" points="12.8 63.51 3.1 60.81 2.8 68.61 12 67.01 12.8 63.51"/>
      <polygon class="cls-1" points="12.8 71.01 0 80.11 5 83.61 12.6 75.11 12.8 71.01"/>
    </g>
  </g>
</svg>