<?xml version="1.0" encoding="UTF-8"?>
<svg id="Layer_2" data-name="Layer 2" xmlns="http://www.w3.org/2000/svg" viewBox="0 0 68.57 72.6">
  <defs>
    <style>
      .cls-1 {
        fill: #fff;
        stroke-width: 0px;
      }
    </style>
  </defs>
  <g id="Layer_1-2" data-name="Layer 1">
    <g>
      <path class="cls-1" d="M50.73,31.8c-.3-1.2-.7-2.3-1.1-3.4-.7.9-1.4,1.9-2.1,2.9.2.5.3,1,.5,1.5,1.3,4.4,1.9,9.1,1.2,13.6-.5,3.5-1.9,5.1-4.3,7.7-1.4,1.4-3,2.6-4.7,3.6-2.1,1.3-4.3,2.6-6.6,3.5-1,.4-1.9.7-2.8,1.2-.9.5-1.6,1.3-2.3,2.1l-2.3,2.7-2.3-2.7c-.7-.8-1.4-1.5-2.3-2.1-.9-.5-1.9-.9-2.8-1.2-2.3-.9-4.5-2.2-6.6-3.5-1.7-1.1-3.3-2.2-4.7-3.6-2.4-2.6-3.7-4.2-4.3-7.7-.7-4.5-.1-9.2,1.2-13.6.8-2.8,2-5.5,2.8-8.3,1-3.7,1.5-7.6,1.2-11.5,2.4,1.5,5.2,2.4,8,2.6,1,.1,2.1,0,3-.3,1-.3,1.9-.8,2.7-1.4l4-2.8,4,2.8c.8.6,1.7,1.1,2.7,1.4s2,.3,3,.3c2.8-.2,5.6-1.1,8-2.6-.1.8-.1,1.7-.1,2.5.7-1.1,1.5-2.1,2.2-3.1,0-.9,0-1.9.1-2.8-2.7,1.7-5.8,2.7-9,2.9-1.1.1-2.3,0-3.4-.3-1.1-.3-2.1-.9-3-1.6l-4.5-3.2-4.5,3.2c-.9.7-1.9,1.3-3,1.6-1.1.3-2.3.4-3.4.3-3.2-.2-6.3-1.2-9-2.9.3,4.4-.2,8.8-1.4,13-.9,3.2-2.2,6.2-3.1,9.3C.23,36.9-.47,42.1.33,47.2c.6,3.9,2.1,7.8,4.8,10.7,1.5,1.6,3.4,2.9,5.3,4.1,2.4,1.5,4.8,2.9,7.4,3.9,1.1.4,2.2.8,3.2,1.4s1.8,1.4,2.5,2.3l2.6,3,2.6-3c.8-.9,1.6-1.7,2.5-2.3,1-.6,2.1-1,3.2-1.4,2.6-1,5-2.5,7.4-3.9,1.9-1.2,3.8-2.5,5.3-4.1,2.7-2.9,4.2-6.7,4.8-10.7,1-5.1.3-10.4-1.2-15.4Z"/>
      <path class="cls-1" d="M23.53,57.9c-.6.1-1.2.1-1.8.2-2.5.1-4.2-1-5.2-3.4-.7-1.8-1.4-3.6-2-5.4-.9-2.7-1.7-5.5-2.5-8.3-.5-1.8,0-3.3,1.4-4.5,1.6-1.3,3.4-2.3,5.4-2.6,1.3-.2,2.4.3,3,1.5.7,1.6,1.3,3.3,2,4.9.3.8.6,1.5,1,2.3.5,1.1,1.5,1.2,2.2.2s1.3-2,1.9-3c5.6-8.7,11.3-17.4,17.7-25.6,2.5-3.3,5.2-6.5,7.8-9.7,1.9-2.3,4.3-3.5,7.2-4.2,1.9-.4,3.8-.2,5.8-.3.3,0,.8.2,1,.5.2.4.2,1-.2,1.4-1.6,2-3.2,4-4.8,6.1-6,7.8-12,15.5-17.9,23.3-5.7,7.6-11,15.6-16.1,23.6-1.6,2.2-3.3,3.1-5.9,3Z"/>
    </g>
  </g>
</svg>