<?xml version="1.0" encoding="UTF-8"?>
<svg id="Layer_2" data-name="Layer 2" xmlns="http://www.w3.org/2000/svg" viewBox="0 0 50.07 62.6">
  <defs>
    <style>
      .cls-1 {
        fill: #fff;
        stroke-width: 0px;
      }
    </style>
  </defs>
  <g id="Layer_1-2" data-name="Layer 1">
    <g>
      <path class="cls-1" d="M48.44,23.5c-.9-3-2.1-5.9-3-8.9-1.1-4-1.6-8.3-1.3-12.4-2.6,1.6-5.6,2.6-8.6,2.8-1.1.1-2.2,0-3.3-.3-1.1-.3-2-.9-2.9-1.6l-4.3-3.1-4.3,3.1c-.9.6-1.8,1.2-2.9,1.6-1.1.3-2.2.3-3.3.3-3-.2-6-1.2-8.6-2.8.3,4.2-.2,8.4-1.3,12.4-.8,3-2.1,5.9-3,8.9C.24,28.2-.46,33.3.34,38.2c.6,3.8,2,7.5,4.6,10.2,1.5,1.6,3.3,2.8,5.1,3.9,2.3,1.4,4.6,2.8,7.1,3.8,1,.4,2.1.8,3,1.4.9.6,1.7,1.4,2.4,2.2l2.5,2.9,2.5-2.9c.7-.8,1.5-1.7,2.4-2.2.9-.6,2-.9,3-1.4,2.5-1,4.8-2.4,7.1-3.8,1.8-1.1,3.6-2.4,5.1-3.9,2.6-2.8,4-6.5,4.6-10.2.8-4.9.1-10-1.3-14.7ZM47.04,37.4c-.5,3.3-1.8,4.9-4.1,7.4-1.3,1.4-2.9,2.5-4.5,3.5-2,1.3-4.1,2.5-6.3,3.4-.9.4-1.9.7-2.7,1.2s-1.5,1.2-2.2,2l-2.2,2.6-2.2-2.6c-.6-.8-1.3-1.5-2.2-2-.8-.5-1.8-.8-2.7-1.2-2.2-.9-4.3-2.1-6.3-3.4-1.6-1-3.2-2.1-4.5-3.5-2.3-2.5-3.6-4-4.1-7.4-.7-4.4-.1-8.8,1.2-13.1.8-2.7,1.9-5.3,2.6-7.9,1-3.6,1.4-7.3,1.2-11.1,2.3,1.4,4.9,2.3,7.6,2.5,1,.1,2,0,2.9-.2.9-.3,1.8-.8,2.6-1.4l3.8-2.7,3.8,2.7c.8.6,1.6,1.1,2.6,1.4.9.3,1.9.3,2.9.2,2.7-.2,5.3-1,7.6-2.5-.2,3.7.2,7.5,1.2,11.1.8,2.7,1.8,5.3,2.6,7.9,1.5,4.3,2,8.7,1.4,13.1Z"/>
      <circle class="cls-1" cx="25.11" cy="13.02" r="4.78"/>
      <rect class="cls-1" x="10.28" y="19.35" width="29.64" height="6.3" rx="3.15" ry="3.15"/>
      <rect class="cls-1" x="19.54" y="24.91" width="11.12" height="6.3" rx="1.65" ry="1.65" transform="translate(53.16 2.95) rotate(90)"/>
      <rect class="cls-1" x="10.07" y="35.82" width="21.75" height="6.3" rx="3.15" ry="3.15" transform="translate(65.17 40.32) rotate(120)"/>
      <rect class="cls-1" x="18.39" y="35.82" width="21.75" height="6.3" rx="3.15" ry="3.15" transform="translate(48.38 -5.86) rotate(60)"/>
    </g>
  </g>
</svg>