<?xml version="1.0" encoding="UTF-8"?>
<svg id="Layer_2" data-name="Layer 2" xmlns="http://www.w3.org/2000/svg" viewBox="0 0 50.56 105.7">
  <defs>
    <style>
      .cls-1 {
        fill-rule: evenodd;
      }

      .cls-1, .cls-2 {
        fill: #fff;
        stroke-width: 0px;
      }
    </style>
  </defs>
  <g id="Layer_1-2" data-name="Layer 1">
    <g>
      <g>
        <path class="cls-2" d="M48.99,48.3c-.9-3-2.2-6-3-9.1-1.1-4.1-1.6-8.4-1.3-12.6-2.6,1.6-5.6,2.6-8.7,2.8-1.1.1-2.3,0-3.3-.3-1.1-.3-2-.9-2.9-1.6l-4.4-3.1-4.4,3.1c-.9.7-1.9,1.3-3,1.6s-2.2.4-3.3.3c-3.1-.2-6.1-1.2-8.7-2.8.3,4.2-.2,8.5-1.3,12.6-.9,3.1-2.1,6-3,9.1C.19,53.1-.41,58.2.29,63.2c.3,2.1.9,4.1,1.7,6,.7,1.6,1.7,3.1,2.9,4.4l.1.1c1,1,2.1,1.9,3.3,2.7.6-.5,1.3-.9,2-1.3.3-.2.7-.3,1.1-.3s.7.1,1.1.3c2.5,1.5,4.4,3.7,5.6,6.6.3.1.7.3,1,.4v-.2c.1-.1.1-.2.2-.3.1-.1.2-.3.3-.4q.1-.1.2-.2c.2-.1.3-.2.5-.3s.4-.2.6-.2h2.4l-.3-.4c-.6-.8-1.3-1.5-2.2-2-.8-.5-1.8-.8-2.7-1.2-2.1-.8-4-1.9-5.9-3.1-.2-.1-.3-.2-.5-.3-1.6-1-3.2-2.1-4.6-3.5-.2-.2-.4-.5-.7-.7-1.9-2.1-3-3.7-3.5-6.7-.7-4.4-.1-9,1.2-13.2.8-2.7,1.9-5.3,2.7-8,1-3.6,1.4-7.4,1.2-11.2,2.3,1.5,5,2.3,7.7,2.5,1,.1,2,0,3-.2,1-.3,1.8-.8,2.6-1.4l3.9-2.7,3.9,2.7c.8.6,1.7,1.1,2.6,1.4,1,.3,2,.3,3,.2,2.7-.2,5.4-1.1,7.7-2.5-.2,3.8.2,7.6,1.2,11.2.8,2.7,1.9,5.3,2.7,8,1.3,4.3,1.9,8.8,1.2,13.2-.5,3.1-1.6,4.6-3.5,6.7-.2.2-.4.5-.7.7-1.3,1.4-2.9,2.5-4.6,3.5-.2.1-.3.2-.5.3-1.9,1.2-3.9,2.3-5.9,3.1-.9.4-1.9.7-2.7,1.2s-1.5,1.2-2.2,2l-.3.4h1.9c.2,0,.3,0,.4.1.2.1.4.1.6.2.2.1.4.2.5.3h0c.1,0,.1.1.2.2.1.1.2.2.3.4.1.1.2.3.2.4v.1c.3-.1.7-.3,1-.4,1.2-2.9,3.1-5.1,5.6-6.6.4-.2.7-.3,1.1-.3s.7.1,1.1.3c.7.4,1.4.9,2,1.3,1.2-.8,2.3-1.7,3.3-2.7l.1-.1c1.2-1.3,2.2-2.8,2.9-4.4.9-1.9,1.4-3.9,1.7-6,1.1-5.1.5-10.2-1-15Z"/>
        <path id="rect21" class="cls-1" d="M19.09,34l6.2-3.8,6.2,3.8v39.7l-6.2,5.7-6.2-5.7v-39.7Z"/>
        <path id="path21" class="cls-1" d="M19.09,34l6.2-3.8,6.2,3.8h0l-6.2,4.4-6.2-4.4Z"/>
        <path id="path28" class="cls-1" d="M25.29,34v-3.8l6.2,3.8v39.7l-6.2,5.7v-45.4Z"/>
        <path id="path22" class="cls-1" d="M25.29,34.4v-4.1l6.2,3.8h0l-6.2,4.4v-4.1Z"/>
        <path id="path32" class="cls-1" d="M12.29,51.4l-7,5.9h13.8l6.2-5.9h-13Z"/>
        <path id="path45" class="cls-1" d="M5.29,57.3h0l7-5.9h-6.2c-.5,2-.7,3.9-.8,5.9h0Z"/>
        <path id="path37" class="cls-1" d="M38.29,51.4h-13v5.9h20l-7-5.9Z"/>
        <path id="path43" class="cls-1" d="M38.29,51.4l7,5.9c-.1-2-.4-3.9-.8-5.9h-6.2Z"/>
        <path id="path33" class="cls-1" d="M42.89,45.5l-4.6,5.9h6.2c-.2-.7-.3-1.5-.5-2.2-.3-1.2-.7-2.4-1.1-3.7h0Z"/>
        <path id="path42" class="cls-1" d="M31.49,45.5l-6.2,5.9h13l4.6-5.9h-11.4Z"/>
        <path id="path36" class="cls-1" d="M7.69,45.5c-.4,1.2-.8,2.4-1.1,3.7-.2.7-.4,1.5-.5,2.2h6.2l-4.6-5.9Z"/>
        <path id="path44" class="cls-1" d="M7.69,45.5l4.6,5.9h13l-6.2-5.9H7.69Z"/>
        <path id="path38" class="cls-1" d="M19.09,73.8l6.2-3.8,6.2,3.8h0l-6.2,5.7-6.2-5.7Z"/>
        <path id="path39" class="cls-1" d="M25.29,74.1v-4.1l6.2,3.8h0l-6.2,5.7v-5.4Z"/>
        <path class="cls-2" d="M27.99,24.3s2.9,2.8,6.1,3.4c2.9.6,8.1-1,8.1-1l-2.2-24.6-12,22.2Z"/>
        <circle class="cls-2" cx="39.99" cy="2.1" r="2.1"/>
      </g>
      <g>
        <path class="cls-2" d="M18.59,93c.1.3.1.6,0,1,0,0,0,.1-.1.1-1.2,2.7-2.7,5.2-4.6,7.4-1.4,1.6-3,2.9-4.7,4.1-.4.2-.7.1-.8-.3-.7-2.2-1-4.4-.5-6.7,0-.2.1-.4.2-.6v-.1c-.7,0-1.5.1-2.2,0-1.7-.2-3.4-.7-5-1.5-.4-.2-.4-.4-.1-.7,1.3-1.2,2.6-2.3,4.2-3.2,1.2-.7,2.5-1.3,3.8-2,.2-.1.5-.1.7,0,2.3.8,4.7,1.1,7.1,1.2h1.3c.2,0,.2.1.3.2q0,.1.1.2h0c0,.3.1.6.3.9Z"/>
        <path class="cls-2" d="M19.69,94.2c0-.1,0-.2-.1-.3,0-.1-.1-.3-.1-.4v-.3c-.1-.3-.1-.7-.1-1v-.4c.1.3.2.5.3.8.1.5.2,1.1,0,1.6Z"/>
        <path class="cls-2" d="M18.59,94s0,.1,0,0c-1.3,2.8-2.8,5.3-4.7,7.5-1.4,1.6-3,2.9-4.7,4.1-.4.2-.7.1-.8-.3-.7-2.2-1-4.4-.5-6.7,0-.2.1-.4.2-.6v-.1c-.7,0-1.5.1-2.2,0-1.7-.2-3.4-.7-5-1.5-.4-.2-.4-.4-.1-.7,1.3-1.2,2.6-2.3,4.2-3.2,1.2-.7,2.5-1.3,3.8-2,.2-.1.5-.1.7,0,2.3.8,4.7,1.1,7.1,1.2h1.3c.2,0,.2.1.3.2q0,.1.1.2h0c.1.3.2.7.4,1,0,.3,0,.6-.1.9Z"/>
        <path class="cls-2" d="M30.99,92.6c.1-.2.2-.5.3-.8,0,.3-.1.7-.1,1,0,.2-.1.4-.1.5,0,.2-.1.4-.1.5s0,.2-.1.3c-.1-.4-.1-1,.1-1.5Z"/>
        <path class="cls-2" d="M49.79,96.4c-1.6.7-3.2,1.3-5,1.5-.7.1-1.5,0-2.2,0v.1c.1.2.1.4.2.6.5,2.3.2,4.5-.5,6.7-.1.4-.5.5-.8.3-1.7-1.2-3.3-2.5-4.7-4.1-1.9-2.2-3.4-4.7-4.6-7.4,0,0,0-.1-.1-.1-.1-.3-.2-.6,0-1,.1-.3.3-.7.4-1q0-.1.1-.2t.3-.2h1.3c2.4-.1,4.8-.4,7.1-1.2.3-.1.5-.1.7,0,1.3.7,2.6,1.3,3.8,2,1.5.9,2.9,2,4.2,3.2.2.3.1.6-.2.8Z"/>
        <path class="cls-2" d="M49.79,96.4c-1.6.7-3.2,1.3-5,1.5-.7.1-1.5,0-2.2,0v.1c.1.2.1.4.2.6.5,2.3.2,4.5-.5,6.7-.1.4-.5.5-.8.3-1.7-1.2-3.3-2.5-4.7-4.1-1.9-2.2-3.4-4.7-4.6-7.4,0,0,0-.1-.1-.1-.1-.3-.2-.6,0-1,.1-.3.3-.7.4-1q0-.1.1-.2t.3-.2h1.3c2.4-.1,4.8-.4,7.1-1.2.3-.1.5-.1.7,0,1.3.7,2.6,1.3,3.8,2,1.5.9,2.9,2,4.2,3.2.2.3.1.6-.2.8Z"/>
        <path class="cls-2" d="M17.99,90c0,.3-.1.4-.3.3h-1c-2.4-.1-4.7-.4-7-1.2-1.5-.5-2.9-1.1-4-2.2-.5-.5-1-1-1.3-1.6-.2-.3-.2-.6,0-1,1.1-2.7,2.8-4.8,5.1-6.5.5-.4,1-.7,1.6-1,.3-.2.7-.2,1,0,2.1,1.2,3.6,2.9,4.6,5,.3.5.5,1,.7,1.6.3.9.7,1.7,1.1,2.6h0c.1.3.2.6,0,1-.1.3-.2.6-.3,1h0c-.2.7-.2,1.4-.2,2Z"/>
        <path class="cls-2" d="M19.49,87.4c-.1.2-.2.5-.2.7,0-.3.1-.7.1-1,0-.4.1-.8.2-1.1,0,.5,0,.9-.1,1.4Z"/>
        <path class="cls-2" d="M18.39,87.1c-.1.3-.2.6-.3,1h0c-.1.7-.2,1.3-.1,2,0,.3-.1.4-.3.3h-1c-2.4-.1-4.7-.4-7-1.2-1.5-.5-2.9-1.1-4-2.2-.5-.5-1-1-1.3-1.6-.2-.3-.2-.6,0-1,1.1-2.7,2.8-4.8,5.1-6.5.5-.4,1-.7,1.6-1,.3-.2.7-.2,1,0,2.1,1.2,3.6,2.9,4.6,5,.3.5.5,1,.7,1.6.3.9.7,1.7,1.1,2.6h0c0,.3,0,.6-.1,1Z"/>
        <path class="cls-2" d="M31.29,87.6v.6c-.1-.3-.1-.5-.2-.7-.2-.5-.2-1,0-1.4h0c0,.1,0,.3.1.4,0,.2.1.4.1.6v.3s0,.1,0,.2Z"/>
        <path class="cls-2" d="M46.29,85.4c-.3.6-.8,1.2-1.3,1.6-1.2,1-2.6,1.7-4,2.2-2.3.7-4.6,1-7,1.2h-1c-.3,0-.3-.1-.3-.3,0-.7,0-1.3-.1-2h0c-.1-.3-.2-.6-.3-1-.1-.3-.1-.6,0-1h0c.4-.9.8-1.7,1.1-2.6.2-.5.4-1.1.7-1.6,1-2.1,2.6-3.8,4.6-5,.4-.2.7-.2,1,0,.5.3,1.1.7,1.6,1,2.2,1.7,3.9,3.8,5.1,6.5.1.4,0,.7-.1,1Z"/>
        <path class="cls-2" d="M46.29,85.4c-.3.6-.8,1.2-1.3,1.6-1.2,1-2.6,1.7-4,2.2-2.3.7-4.6,1-7,1.2h-1c-.3,0-.3-.1-.3-.3,0-.7,0-1.3-.1-2h0c-.1-.3-.2-.6-.3-1-.1-.3-.1-.6,0-1h0c.4-.9.8-1.7,1.1-2.6.2-.5.4-1.1.7-1.6,1-2.1,2.6-3.8,4.6-5,.4-.2.7-.2,1,0,.5.3,1.1.7,1.6,1,2.2,1.7,3.9,3.8,5.1,6.5.1.4,0,.7-.1,1Z"/>
        <path class="cls-2" d="M32.19,87.1c-.1-.3-.1-.6,0-1h0v.2c0,.2.1.4.1.6,0,.1,0,.2-.1.2.1.2.1.3.1.4v.5c.1-.3,0-.6-.1-.9Z"/>
        <path class="cls-2" d="M18.39,87.1c-.1.3-.2.6-.3,1,0-.3.1-.7.1-1s.1-.6.1-.9h0c.2.2.2.5.1.9Z"/>
        <path class="cls-2" d="M18.59,93c.1.3.1.6,0,1,0,0,0,.1-.1.1,0-.1,0-.2-.1-.3v-.3c-.1-.4-.1-.7-.2-1v-.3c.1.2.2.5.4.8Z"/>
        <path class="cls-2" d="M31.39,89.6v2.1h0v.1c0,.3-.1.7-.1,1,0,.2-.1.4-.1.5,0,.2-.1.4-.1.5s0,.2-.1.3v.1c0,.1,0,.2-.1.3-.1.2-.1.5-.2.7h0v.2h0q0,.1-.1.1h0v.1c0,.1-.1.1-.1.2h0v.1s0,.1-.1.1v.1h0l-.1.1h-.2l-.1.1s-.1,0-.1.1h-8.9s-.1,0-.1-.1c0,0-.1,0-.1-.1h-.1l-.1-.1v-.1h0s0-.1-.1-.1l-.1-.1s0-.1-.1-.1h0v-.3q0-.1-.1-.2v-.1c0-.2-.1-.4-.1-.5s-.1-.3-.1-.4v-.2c0-.1,0-.2-.1-.3,0-.1-.1-.3-.1-.4v-.3c-.1-.3-.1-.7-.1-1v-.4h0v-.1h0v-2.7h0v-.9c0-.3.1-.7.1-1,0-.4.1-.8.2-1.1h0c0-.2,0-.3.1-.5v-.2c0-.1,0-.2.1-.4,0-.1.1-.3.1-.4s0-.2.1-.3c0-.1.1-.3.1-.4s0-.1.1-.2c0-.1.1-.2.1-.2v-.1h0c0-.1.1-.2.2-.3.1-.1.1-.2.2-.2l.1-.1c.1-.1.2-.1.3-.2.1-.1.2-.1.4-.1h3.1l1,1.1,1-1.1h3.1c.1,0,.2.1.4.1.1.1.2.1.3.2l.1.1c.1.1.1.2.2.2.1.1.1.2.2.3h0v.1c0,.1.1.2.1.2q0,.1.1.2c0,.1.1.2.1.4,0,.1.1.2.1.3v.2h0v.1c0,.1.1.3.1.4v.3c0,.1,0,.3.1.4h0c0,.1,0,.3.1.4,0,.2.1.4.1.6v1.1h0v.4c-.7.7-.7,1-.7,1.4Z"/>
        <path class="cls-2" d="M31.99,93c.1-.3.3-.7.4-1,0,.3-.1.6-.1,1h0c0,.2-.1.3-.1.5s-.1.4-.1.6c0,0,0-.1-.1-.1-.1-.3-.1-.6,0-1Z"/>
        <path class="cls-2" d="M31.39,89.6v2.1h0v.1c0,.3-.1.7-.1,1,0,.2-.1.4-.1.5,0,.2-.1.4-.1.5s0,.2-.1.3v.1c0,.1,0,.2-.1.3-.1.2-.1.5-.2.7h0v.2h0q0,.1-.1.1h0v.1c0,.1-.1.1-.1.2h0v.1s0,.1-.1.1v.1h0l-.1.1h-.2l-.1.1s-.1,0-.1.1h-8.9s-.1,0-.1-.1c0,0-.1,0-.1-.1h-.1l-.1-.1v-.1h0s0-.1-.1-.1l-.1-.1s0-.1-.1-.1h0v-.3q0-.1-.1-.2v-.1c0-.2-.1-.4-.1-.5s-.1-.3-.1-.4v-.2c0-.1,0-.2-.1-.3,0-.1-.1-.3-.1-.4v-.3c-.1-.3-.1-.7-.1-1v-.4h0v-.1h0v-2.7h0v-.9c0-.3.1-.7.1-1,0-.4.1-.8.2-1.1h0c0-.2,0-.3.1-.5v-.2c0-.1,0-.2.1-.4,0-.1.1-.3.1-.4s0-.2.1-.3c0-.1.1-.3.1-.4s0-.1.1-.2c0-.1.1-.2.1-.2v-.1h0c0-.1.1-.2.2-.3.1-.1.1-.2.2-.2l.1-.1c.1-.1.2-.1.3-.2.1-.1.2-.1.4-.1h8.2c.1,0,.2.1.4.1.1.1.2.1.3.2l.1.1c.1.1.1.2.2.2.1.1.1.2.2.3h0v.1c0,.1.1.2.1.2q0,.1.1.2c0,.1.1.2.1.4,0,.1.1.2.1.3v.2h0v.1c0,.1.1.3.1.4v.3c0,.1,0,.3.1.4h0c0,.1,0,.3.1.4,0,.2.1.4.1.6v1.1h0v.4c-.7.7-.7,1-.7,1.4Z"/>
      </g>
    </g>
  </g>
</svg>