<?xml version="1.0" encoding="UTF-8"?>
<svg id="Layer_2" data-name="Layer 2" xmlns="http://www.w3.org/2000/svg" viewBox="0 0 80.24 94.12">
  <defs>
    <style>
      .cls-1 {
        fill: #fff;
        stroke-width: 0px;
      }
    </style>
  </defs>
  <g id="Layer_1-2" data-name="Layer 1">
    <g>
      <path class="cls-1" d="M20.21,87.86c-3.2,6.47-10.98,9.02-15.41,2.28-3.79-5.92-6.41-22.4-3.64-29.28,1.41-3.8,6.43-5.61,9.37-2.54,1.41,1.42,1.73,3.25,1.79,5.54.21,3.97-.23,7.57.23,11.42.16.77.39,3.15,1.51,2.56,1.78-1.55,2.16-7.85,2.54-10.73,1.14-6.44,5.2-6.69,8.88-1.47,1.79,1.88,3.25,4.07,5.46,4.86,2.33.23,1.1-3.13.66-4.4-1.14-3.12-2.53-5.52-1.43-8.39,1.04-2.68,4.55-3.53,6.91-2,5.35,3.86,8.25,16.92,5.9,22.94-2.43,7.21-11.7,7.64-16.75,2.91-1.13-1-1.99-1.96-2.56-1.69-.51.23-.71,1.01-.9,1.54-.63,1.99-1.42,4.31-2.45,6.27l-.1.18Z"/>
      <path class="cls-1" d="M58.8,75.96c-4.02,3.96-10.16,3.47-11.54-2.53-1.08-5.37.77-16.86,4.41-21.31,1.75-2.09,5-2.61,6.75-.43,2.98,4.19-2.51,10.35-2.02,14.91.46,1.57,2.15-1.01,3.17-2.91,1.23-2.19,2.17-5.81,4.91-6.1,3.83-.04,3.45,7.66,6.69,8.45.82-.24.9-1.49.97-2.28.12-2.81-.53-5.59,1.67-7.31,3.71-2.38,6.32,2.22,6.29,5.54.76,6.4-1.54,17.2-9.96,15.29-2.28-.61-4.24-2.34-5.44-4.34-.58-.92-1.04-1.57-1.55-1.52-1.01.11-2.82,3.35-4.21,4.41l-.15.14Z"/>
      <path class="cls-1" d="M54.98,56.58c-10.46-2.22-21.9-4.74-30.23-12.13-8.96-8.16-12.59-22.01-7.04-33.19C22.16,2.59,35.27-4.12,43.63,2.99c3.77,3.35,5.46,7.99,6.04,12.75,0,0-.1-.45-.1-.45,0-.03,0,0-.15-.22-.11-.15-.59-.55-1.1-.57-.18-.04-.46.02-.51.03-.07.02-.16.04-.22.09.04-.03.05-.02.11-.07,4.28-4.16,11.82-7.75,16.91-1.47,4.54,7.08,1.68,15.83-1.87,22.61-5.97,10.97-16.49,18.39-24.74,27.33-5.4,5.21-12.31-3.48-5.98-7.56,12.01-6.81,25.25-14.26,29.99-27.94,1.82-4.79,1.88-14.29-4.87-13.56-1.74.29-3.55,1.45-5.07,2.8-.67.65-1.33,1.39-2.22,1.91-1.99,1.19-4.16.08-4.77-1.89-.85-6.22-5.51-12.63-12.25-9.23-10.24,3.96-10.95,15.67-6.36,24.34,1.89,4.03,4.44,7.32,8.3,9.74,6.2,4.23,13.86,6.47,21.76,8.73,3.92,1.23,2.49,6.97-1.56,6.23h0Z"/>
    </g>
  </g>
</svg>